<svg xmlns="http://www.w3.org/2000/svg" xmlns:xlink="http://www.w3.org/1999/xlink" width="500" zoomAndPan="magnify" viewBox="0 0 375 374.999991" height="500" preserveAspectRatio="xMidYMid meet" version="1.0"><defs><g/><clipPath id="6640a454de"><path d="M 27.660156 145.222656 L 148 145.222656 L 148 197.722656 L 27.660156 197.722656 Z M 27.660156 145.222656 " clip-rule="nonzero"/></clipPath><clipPath id="2cdb1e265b"><path d="M 115.808594 197.332031 L 148 197.332031 L 148 222 L 115.808594 222 Z M 115.808594 197.332031 " clip-rule="nonzero"/></clipPath><clipPath id="82bf5e94e7"><path d="M 62.574219 223 L 112.824219 223 L 112.824219 236.578125 L 62.574219 236.578125 Z M 62.574219 223 " clip-rule="nonzero"/></clipPath><clipPath id="b79f4a5da7"><path d="M 81 207 L 95 207 L 95 236.578125 L 81 236.578125 Z M 81 207 " clip-rule="nonzero"/></clipPath><clipPath id="6181c3e9e3"><path d="M 63 197.578125 L 112 197.578125 L 112 229 L 63 229 Z M 63 197.578125 " clip-rule="nonzero"/></clipPath><clipPath id="0c1732acf5"><path d="M 27.660156 195.628906 L 61.410156 195.628906 L 61.410156 222 L 27.660156 222 Z M 27.660156 195.628906 " clip-rule="nonzero"/></clipPath></defs><rect x="-37.5" width="450" fill="#ffffff" y="-37.499999" height="449.999989" fill-opacity="1"/><rect x="-37.5" width="450" fill="#0d1532" y="-37.499999" height="449.999989" fill-opacity="1"/><g clip-path="url(#6640a454de)"><path fill="#0094ff" d="M 82.4375 156.109375 C 67.402344 156.109375 55.210938 168.300781 55.210938 183.335938 C 55.210938 186.34375 52.773438 188.78125 49.765625 188.78125 C 43.753906 188.78125 38.875 193.65625 38.875 199.671875 C 38.875 205.6875 43.753906 210.5625 49.765625 210.5625 L 56.574219 210.5625 L 56.574219 221.453125 L 49.765625 221.453125 C 37.738281 221.453125 27.988281 211.699219 27.988281 199.671875 C 27.988281 189.414062 35.078125 180.8125 44.625 178.5 C 47 159.734375 63.023438 145.222656 82.4375 145.222656 C 97.738281 145.222656 110.921875 154.234375 116.992188 167.234375 C 118.160156 167.078125 119.347656 167 120.550781 167 C 135.585938 167 147.777344 179.191406 147.777344 194.226562 C 147.777344 201.253906 145.726562 208.003906 141.507812 213.097656 C 137.207031 218.296875 130.902344 221.453125 123.273438 221.453125 L 119.191406 221.453125 L 119.191406 210.5625 L 123.273438 210.5625 C 127.675781 210.5625 130.898438 208.839844 133.117188 206.15625 C 135.425781 203.371094 136.886719 199.226562 136.886719 194.226562 C 136.886719 185.203125 129.574219 177.890625 120.550781 177.890625 C 118.726562 177.890625 116.980469 178.1875 115.355469 178.734375 C 113.964844 179.199219 112.449219 179.085938 111.148438 178.421875 C 109.84375 177.753906 108.863281 176.59375 108.425781 175.195312 C 104.964844 164.132812 94.628906 156.109375 82.4375 156.109375 Z M 82.4375 156.109375 " fill-opacity="1" fill-rule="evenodd"/></g><g clip-path="url(#2cdb1e265b)"><path fill="#ff3131" d="M 82.4375 156.109375 C 67.402344 156.109375 55.210938 168.300781 55.210938 183.335938 C 55.210938 186.34375 52.773438 188.78125 49.765625 188.78125 C 43.753906 188.78125 38.875 193.65625 38.875 199.671875 C 38.875 205.6875 43.753906 210.5625 49.765625 210.5625 L 56.574219 210.5625 L 56.574219 221.453125 L 49.765625 221.453125 C 37.738281 221.453125 27.988281 211.699219 27.988281 199.671875 C 27.988281 189.414062 35.078125 180.8125 44.625 178.5 C 47 159.734375 63.023438 145.222656 82.4375 145.222656 C 97.738281 145.222656 110.921875 154.234375 116.992188 167.234375 C 118.160156 167.078125 119.347656 167 120.550781 167 C 135.585938 167 147.777344 179.191406 147.777344 194.226562 C 147.777344 201.253906 145.726562 208.003906 141.507812 213.097656 C 137.207031 218.296875 130.902344 221.453125 123.273438 221.453125 L 119.191406 221.453125 L 119.191406 210.5625 L 123.273438 210.5625 C 127.675781 210.5625 130.898438 208.839844 133.117188 206.15625 C 135.425781 203.371094 136.886719 199.226562 136.886719 194.226562 C 136.886719 185.203125 129.574219 177.890625 120.550781 177.890625 C 118.726562 177.890625 116.980469 178.1875 115.355469 178.734375 C 113.964844 179.199219 112.449219 179.085938 111.148438 178.421875 C 109.84375 177.753906 108.863281 176.59375 108.425781 175.195312 C 104.964844 164.132812 94.628906 156.109375 82.4375 156.109375 Z M 82.4375 156.109375 " fill-opacity="1" fill-rule="evenodd"/></g><g clip-path="url(#82bf5e94e7)"><path fill="#c1ff72" d="M 94.023438 301.378906 C 111.871094 301.378906 126.335938 286.910156 126.335938 269.066406 C 126.335938 265.496094 129.230469 262.605469 132.796875 262.605469 C 139.933594 262.605469 145.722656 256.820312 145.722656 249.679688 C 145.722656 242.542969 139.933594 236.757812 132.796875 236.757812 L 124.71875 236.757812 L 124.71875 223.832031 L 132.796875 223.832031 C 147.074219 223.832031 158.644531 235.40625 158.644531 249.679688 C 158.644531 261.855469 150.230469 272.0625 138.898438 274.804688 C 136.078125 297.078125 117.0625 314.300781 94.023438 314.300781 C 75.863281 314.300781 60.214844 303.605469 53.015625 288.179688 C 51.628906 288.359375 50.21875 288.453125 48.789062 288.453125 C 30.945312 288.453125 16.480469 273.988281 16.480469 256.144531 C 16.480469 247.800781 18.914062 239.792969 23.917969 233.746094 C 29.023438 227.574219 36.507812 223.832031 45.558594 223.832031 L 50.40625 223.832031 L 50.40625 236.757812 L 45.558594 236.757812 C 40.332031 236.757812 36.507812 238.800781 33.875 241.984375 C 31.140625 245.292969 29.402344 250.210938 29.402344 256.144531 C 29.402344 266.851562 38.082031 275.527344 48.789062 275.527344 C 50.957031 275.527344 53.027344 275.175781 54.957031 274.527344 C 56.605469 273.976562 58.40625 274.109375 59.953125 274.898438 C 61.5 275.691406 62.664062 277.070312 63.179688 278.726562 C 67.289062 291.859375 79.554688 301.378906 94.023438 301.378906 Z M 94.023438 301.378906 " fill-opacity="1" fill-rule="evenodd"/></g><g clip-path="url(#b79f4a5da7)"><path fill="#c1ff72" d="M 94.023438 249.679688 L 81.101562 249.679688 L 81.101562 207.675781 L 94.023438 207.675781 Z M 94.023438 249.679688 " fill-opacity="1" fill-rule="evenodd"/></g><g clip-path="url(#6181c3e9e3)"><path fill="#c1ff72" d="M 92.132812 199.875 L 111.519531 219.261719 L 102.378906 228.402344 L 87.5625 213.585938 L 72.746094 228.402344 L 63.605469 219.261719 L 82.992188 199.875 C 85.515625 197.351562 89.609375 197.351562 92.132812 199.875 Z M 92.132812 199.875 " fill-opacity="1" fill-rule="evenodd"/></g><g clip-path="url(#0c1732acf5)"><path fill="#ff3131" d="M 82.4375 156.109375 C 67.402344 156.109375 55.210938 168.300781 55.210938 183.335938 C 55.210938 186.34375 52.773438 188.78125 49.765625 188.78125 C 43.753906 188.78125 38.875 193.65625 38.875 199.671875 C 38.875 205.6875 43.753906 210.5625 49.765625 210.5625 L 56.574219 210.5625 L 56.574219 221.453125 L 49.765625 221.453125 C 37.738281 221.453125 27.988281 211.699219 27.988281 199.671875 C 27.988281 189.414062 35.078125 180.8125 44.625 178.5 C 47 159.734375 63.023438 145.222656 82.4375 145.222656 C 97.738281 145.222656 110.921875 154.234375 116.992188 167.234375 C 118.160156 167.078125 119.347656 167 120.550781 167 C 135.585938 167 147.777344 179.191406 147.777344 194.226562 C 147.777344 201.253906 145.726562 208.003906 141.507812 213.097656 C 137.207031 218.296875 130.902344 221.453125 123.273438 221.453125 L 119.191406 221.453125 L 119.191406 210.5625 L 123.273438 210.5625 C 127.675781 210.5625 130.898438 208.839844 133.117188 206.15625 C 135.425781 203.371094 136.886719 199.226562 136.886719 194.226562 C 136.886719 185.203125 129.574219 177.890625 120.550781 177.890625 C 118.726562 177.890625 116.980469 178.1875 115.355469 178.734375 C 113.964844 179.199219 112.449219 179.085938 111.148438 178.421875 C 109.84375 177.753906 108.863281 176.59375 108.425781 175.195312 C 104.964844 164.132812 94.628906 156.109375 82.4375 156.109375 Z M 82.4375 156.109375 " fill-opacity="1" fill-rule="evenodd"/></g><g fill="#fefefe" fill-opacity="1"><g transform="translate(159.40202, 195.656946)"><g><path d="M 30.15625 0 L 24.828125 0 L 8.828125 -24.21875 L 8.828125 0 L 3.5 0 L 3.5 -32.484375 L 8.828125 -32.484375 L 24.828125 -8.3125 L 24.828125 -32.484375 L 30.15625 -32.484375 Z M 30.15625 0 "/></g></g></g><g fill="#fefefe" fill-opacity="1"><g transform="translate(192.107296, 195.656946)"><g><path d="M 27.0625 -13.484375 C 27.0625 -12.523438 27.003906 -11.65625 26.890625 -10.875 L 7.234375 -10.875 C 7.390625 -8.820312 8.148438 -7.171875 9.515625 -5.921875 C 10.890625 -4.679688 12.570312 -4.0625 14.5625 -4.0625 C 17.425781 -4.0625 19.445312 -5.257812 20.625 -7.65625 L 26.375 -7.65625 C 25.59375 -5.289062 24.179688 -3.351562 22.140625 -1.84375 C 20.109375 -0.332031 17.582031 0.421875 14.5625 0.421875 C 12.101562 0.421875 9.898438 -0.128906 7.953125 -1.234375 C 6.015625 -2.335938 4.492188 -3.894531 3.390625 -5.90625 C 2.285156 -7.914062 1.734375 -10.238281 1.734375 -12.875 C 1.734375 -15.519531 2.269531 -17.847656 3.34375 -19.859375 C 4.414062 -21.867188 5.921875 -23.414062 7.859375 -24.5 C 9.804688 -25.59375 12.039062 -26.140625 14.5625 -26.140625 C 16.988281 -26.140625 19.148438 -25.609375 21.046875 -24.546875 C 22.941406 -23.492188 24.414062 -22.007812 25.46875 -20.09375 C 26.53125 -18.175781 27.0625 -15.972656 27.0625 -13.484375 Z M 21.515625 -15.171875 C 21.484375 -17.128906 20.78125 -18.695312 19.40625 -19.875 C 18.039062 -21.0625 16.347656 -21.65625 14.328125 -21.65625 C 12.492188 -21.65625 10.921875 -21.070312 9.609375 -19.90625 C 8.304688 -18.738281 7.53125 -17.160156 7.28125 -15.171875 Z M 21.515625 -15.171875 "/></g></g></g><g fill="#fefefe" fill-opacity="1"><g transform="translate(219.960379, 195.656946)"><g><path d="M 14.515625 -13.015625 L 22.828125 0 L 16.796875 0 L 11.25 -8.734375 L 6.015625 0 L 0.46875 0 L 8.78125 -12.640625 L 0.46875 -25.71875 L 6.484375 -25.71875 L 12.046875 -16.984375 L 17.265625 -25.71875 L 22.828125 -25.71875 Z M 14.515625 -13.015625 "/></g></g></g><g fill="#fefefe" fill-opacity="1"><g transform="translate(242.308116, 195.656946)"><g><path d="M 14.65625 0.421875 C 12.226562 0.421875 10.035156 -0.128906 8.078125 -1.234375 C 6.117188 -2.335938 4.578125 -3.894531 3.453125 -5.90625 C 2.335938 -7.914062 1.78125 -10.238281 1.78125 -12.875 C 1.78125 -15.488281 2.351562 -17.804688 3.5 -19.828125 C 4.65625 -21.859375 6.226562 -23.414062 8.21875 -24.5 C 10.207031 -25.59375 12.429688 -26.140625 14.890625 -26.140625 C 17.347656 -26.140625 19.570312 -25.59375 21.5625 -24.5 C 23.550781 -23.414062 25.117188 -21.859375 26.265625 -19.828125 C 27.421875 -17.804688 28 -15.488281 28 -12.875 C 28 -10.269531 27.40625 -7.953125 26.21875 -5.921875 C 25.039062 -3.898438 23.429688 -2.335938 21.390625 -1.234375 C 19.359375 -0.128906 17.113281 0.421875 14.65625 0.421875 Z M 14.65625 -4.203125 C 16.019531 -4.203125 17.300781 -4.523438 18.5 -5.171875 C 19.695312 -5.828125 20.671875 -6.804688 21.421875 -8.109375 C 22.171875 -9.421875 22.546875 -11.007812 22.546875 -12.875 C 22.546875 -14.75 22.1875 -16.332031 21.46875 -17.625 C 20.75 -18.914062 19.796875 -19.882812 18.609375 -20.53125 C 17.429688 -21.1875 16.160156 -21.515625 14.796875 -21.515625 C 13.421875 -21.515625 12.148438 -21.1875 10.984375 -20.53125 C 9.816406 -19.882812 8.890625 -18.914062 8.203125 -17.625 C 7.523438 -16.332031 7.1875 -14.75 7.1875 -12.875 C 7.1875 -10.113281 7.894531 -7.976562 9.3125 -6.46875 C 10.726562 -4.957031 12.507812 -4.203125 14.65625 -4.203125 Z M 14.65625 -4.203125 "/></g></g></g><g fill="#fefefe" fill-opacity="1"><g transform="translate(271.140975, 195.656946)"><g><path d="M 16.46875 -26.140625 C 18.5 -26.140625 20.3125 -25.71875 21.90625 -24.875 C 23.507812 -24.03125 24.757812 -22.785156 25.65625 -21.140625 C 26.5625 -19.492188 27.015625 -17.503906 27.015625 -15.171875 L 27.015625 0 L 21.75 0 L 21.75 -14.375 C 21.75 -16.675781 21.171875 -18.441406 20.015625 -19.671875 C 18.867188 -20.898438 17.300781 -21.515625 15.3125 -21.515625 C 13.320312 -21.515625 11.742188 -20.898438 10.578125 -19.671875 C 9.410156 -18.441406 8.828125 -16.675781 8.828125 -14.375 L 8.828125 0 L 3.5 0 L 3.5 -25.71875 L 8.828125 -25.71875 L 8.828125 -22.78125 C 9.691406 -23.832031 10.800781 -24.65625 12.15625 -25.25 C 13.507812 -25.84375 14.945312 -26.140625 16.46875 -26.140625 Z M 16.46875 -26.140625 "/></g></g></g><g fill="#fefefe" fill-opacity="1"><g transform="translate(300.487034, 195.656946)"><g><path d="M 8.828125 -32.4375 L 8.828125 0 L 3.5 0 L 3.5 -32.4375 Z M 8.828125 -32.4375 "/></g></g></g><g fill="#fefefe" fill-opacity="1"><g transform="translate(311.870696, 195.656946)"><g><path d="M 24.453125 -32.4375 L 24.453125 -28.09375 L 15.828125 -28.09375 L 15.828125 0 L 10.5 0 L 10.5 -28.09375 L 1.8125 -28.09375 L 1.8125 -32.4375 Z M 24.453125 -32.4375 "/></g></g></g><g fill="#fefefe" fill-opacity="1"><g transform="translate(161.055198, 216.376774)"><g><path d="M 13.578125 -11.984375 L 13.578125 0 L 12 0 L 12 -8.9375 L 8.015625 0 L 6.90625 0 L 2.90625 -8.953125 L 2.90625 0 L 1.328125 0 L 1.328125 -11.984375 L 3.03125 -11.984375 L 7.46875 -2.078125 L 11.890625 -11.984375 Z M 13.578125 -11.984375 "/></g></g></g><g fill="#fefefe" fill-opacity="1"><g transform="translate(178.381598, 216.376774)"><g><path d="M 0.75 -4.78125 C 0.75 -5.75 0.941406 -6.597656 1.328125 -7.328125 C 1.722656 -8.066406 2.265625 -8.632812 2.953125 -9.03125 C 3.640625 -9.4375 4.40625 -9.640625 5.25 -9.640625 C 6.082031 -9.640625 6.800781 -9.457031 7.40625 -9.09375 C 8.019531 -8.738281 8.476562 -8.289062 8.78125 -7.75 L 8.78125 -9.484375 L 10.375 -9.484375 L 10.375 0 L 8.78125 0 L 8.78125 -1.765625 C 8.46875 -1.210938 8 -0.753906 7.375 -0.390625 C 6.757812 -0.0234375 6.046875 0.15625 5.234375 0.15625 C 4.390625 0.15625 3.625 -0.0507812 2.9375 -0.46875 C 2.257812 -0.882812 1.722656 -1.46875 1.328125 -2.21875 C 0.941406 -2.96875 0.75 -3.820312 0.75 -4.78125 Z M 8.78125 -4.765625 C 8.78125 -5.472656 8.632812 -6.09375 8.34375 -6.625 C 8.050781 -7.15625 7.660156 -7.5625 7.171875 -7.84375 C 6.679688 -8.132812 6.144531 -8.28125 5.5625 -8.28125 C 4.96875 -8.28125 4.425781 -8.140625 3.9375 -7.859375 C 3.457031 -7.578125 3.070312 -7.171875 2.78125 -6.640625 C 2.5 -6.117188 2.359375 -5.5 2.359375 -4.78125 C 2.359375 -4.050781 2.5 -3.414062 2.78125 -2.875 C 3.070312 -2.34375 3.457031 -1.9375 3.9375 -1.65625 C 4.425781 -1.375 4.96875 -1.234375 5.5625 -1.234375 C 6.144531 -1.234375 6.679688 -1.375 7.171875 -1.65625 C 7.660156 -1.9375 8.050781 -2.34375 8.34375 -2.875 C 8.632812 -3.414062 8.78125 -4.046875 8.78125 -4.765625 Z M 8.78125 -4.765625 "/></g></g></g><g fill="#fefefe" fill-opacity="1"><g transform="translate(192.505895, 216.376774)"><g><path d="M 6.625 0 L 2.90625 -4.1875 L 2.90625 0 L 1.328125 0 L 1.328125 -12.8125 L 2.90625 -12.8125 L 2.90625 -5.28125 L 6.5625 -9.484375 L 8.765625 -9.484375 L 4.296875 -4.765625 L 8.78125 0 Z M 6.625 0 "/></g></g></g><g fill="#fefefe" fill-opacity="1"><g transform="translate(203.843498, 216.376774)"><g><path d="M 2.140625 -11.03125 C 1.847656 -11.03125 1.597656 -11.132812 1.390625 -11.34375 C 1.179688 -11.550781 1.078125 -11.800781 1.078125 -12.09375 C 1.078125 -12.394531 1.179688 -12.648438 1.390625 -12.859375 C 1.597656 -13.066406 1.847656 -13.171875 2.140625 -13.171875 C 2.429688 -13.171875 2.675781 -13.066406 2.875 -12.859375 C 3.082031 -12.648438 3.1875 -12.394531 3.1875 -12.09375 C 3.1875 -11.800781 3.082031 -11.550781 2.875 -11.34375 C 2.675781 -11.132812 2.429688 -11.03125 2.140625 -11.03125 Z M 2.90625 -9.484375 L 2.90625 0 L 1.328125 0 L 1.328125 -9.484375 Z M 2.90625 -9.484375 "/></g></g></g><g fill="#fefefe" fill-opacity="1"><g transform="translate(210.525074, 216.376774)"><g><path d="M 5.953125 -9.65625 C 7.109375 -9.65625 8.039062 -9.304688 8.75 -8.609375 C 9.46875 -7.910156 9.828125 -6.90625 9.828125 -5.59375 L 9.828125 0 L 8.28125 0 L 8.28125 -5.359375 C 8.28125 -6.304688 8.039062 -7.03125 7.5625 -7.53125 C 7.09375 -8.039062 6.445312 -8.296875 5.625 -8.296875 C 4.789062 -8.296875 4.128906 -8.035156 3.640625 -7.515625 C 3.148438 -6.992188 2.90625 -6.238281 2.90625 -5.25 L 2.90625 0 L 1.328125 0 L 1.328125 -9.484375 L 2.90625 -9.484375 L 2.90625 -8.140625 C 3.21875 -8.617188 3.640625 -8.988281 4.171875 -9.25 C 4.710938 -9.519531 5.304688 -9.65625 5.953125 -9.65625 Z M 5.953125 -9.65625 "/></g></g></g><g fill="#fefefe" fill-opacity="1"><g transform="translate(224.026263, 216.376774)"><g><path d="M 5.25 -9.640625 C 6.0625 -9.640625 6.773438 -9.457031 7.390625 -9.09375 C 8.015625 -8.738281 8.476562 -8.289062 8.78125 -7.75 L 8.78125 -9.484375 L 10.375 -9.484375 L 10.375 0.203125 C 10.375 1.066406 10.1875 1.835938 9.8125 2.515625 C 9.445312 3.191406 8.921875 3.71875 8.234375 4.09375 C 7.546875 4.476562 6.742188 4.671875 5.828125 4.671875 C 4.585938 4.671875 3.550781 4.375 2.71875 3.78125 C 1.882812 3.195312 1.394531 2.398438 1.25 1.390625 L 2.796875 1.390625 C 2.972656 1.960938 3.332031 2.425781 3.875 2.78125 C 4.414062 3.132812 5.066406 3.3125 5.828125 3.3125 C 6.691406 3.3125 7.398438 3.035156 7.953125 2.484375 C 8.503906 1.941406 8.78125 1.179688 8.78125 0.203125 L 8.78125 -1.78125 C 8.46875 -1.226562 8.003906 -0.765625 7.390625 -0.390625 C 6.773438 -0.0234375 6.0625 0.15625 5.25 0.15625 C 4.40625 0.15625 3.640625 -0.0507812 2.953125 -0.46875 C 2.265625 -0.882812 1.722656 -1.46875 1.328125 -2.21875 C 0.941406 -2.96875 0.75 -3.820312 0.75 -4.78125 C 0.75 -5.75 0.941406 -6.597656 1.328125 -7.328125 C 1.722656 -8.066406 2.265625 -8.632812 2.953125 -9.03125 C 3.640625 -9.4375 4.40625 -9.640625 5.25 -9.640625 Z M 8.78125 -4.765625 C 8.78125 -5.472656 8.632812 -6.09375 8.34375 -6.625 C 8.050781 -7.15625 7.660156 -7.5625 7.171875 -7.84375 C 6.679688 -8.132812 6.144531 -8.28125 5.5625 -8.28125 C 4.96875 -8.28125 4.425781 -8.140625 3.9375 -7.859375 C 3.457031 -7.578125 3.070312 -7.171875 2.78125 -6.640625 C 2.5 -6.117188 2.359375 -5.5 2.359375 -4.78125 C 2.359375 -4.050781 2.5 -3.414062 2.78125 -2.875 C 3.070312 -2.34375 3.457031 -1.9375 3.9375 -1.65625 C 4.425781 -1.375 4.96875 -1.234375 5.5625 -1.234375 C 6.144531 -1.234375 6.679688 -1.375 7.171875 -1.65625 C 7.660156 -1.9375 8.050781 -2.34375 8.34375 -2.875 C 8.632812 -3.414062 8.78125 -4.046875 8.78125 -4.765625 Z M 8.78125 -4.765625 "/></g></g></g><g fill="#fefefe" fill-opacity="1"><g transform="translate(238.15056, 216.376774)"><g/></g></g><g fill="#fefefe" fill-opacity="1"><g transform="translate(245.195622, 216.376774)"><g><path d="M 2.90625 -12.0625 L 2.90625 0 L 1.328125 0 L 1.328125 -12.0625 Z M 2.90625 -12.0625 "/></g></g></g><g fill="#fefefe" fill-opacity="1"><g transform="translate(251.877198, 216.376774)"><g><path d="M 8.765625 -12.0625 L 8.765625 -10.78125 L 5.46875 -10.78125 L 5.46875 0 L 3.890625 0 L 3.890625 -10.78125 L 0.59375 -10.78125 L 0.59375 -12.0625 Z M 8.765625 -12.0625 "/></g></g></g><g fill="#fefefe" fill-opacity="1"><g transform="translate(263.664829, 216.376774)"><g/></g></g><g fill="#fefefe" fill-opacity="1"><g transform="translate(270.709892, 216.376774)"><g><path d="M 5.15625 0.125 C 4.363281 0.125 3.648438 -0.015625 3.015625 -0.296875 C 2.390625 -0.585938 1.894531 -0.984375 1.53125 -1.484375 C 1.175781 -1.984375 0.992188 -2.5625 0.984375 -3.21875 L 2.671875 -3.21875 C 2.722656 -2.65625 2.953125 -2.179688 3.359375 -1.796875 C 3.773438 -1.410156 4.375 -1.21875 5.15625 -1.21875 C 5.90625 -1.21875 6.492188 -1.40625 6.921875 -1.78125 C 7.359375 -2.15625 7.578125 -2.632812 7.578125 -3.21875 C 7.578125 -3.675781 7.453125 -4.050781 7.203125 -4.34375 C 6.953125 -4.632812 6.632812 -4.851562 6.25 -5 C 5.863281 -5.15625 5.347656 -5.316406 4.703125 -5.484375 C 3.910156 -5.691406 3.273438 -5.898438 2.796875 -6.109375 C 2.316406 -6.316406 1.90625 -6.640625 1.5625 -7.078125 C 1.226562 -7.523438 1.0625 -8.125 1.0625 -8.875 C 1.0625 -9.539062 1.226562 -10.125 1.5625 -10.625 C 1.894531 -11.132812 2.363281 -11.523438 2.96875 -11.796875 C 3.570312 -12.078125 4.269531 -12.21875 5.0625 -12.21875 C 6.1875 -12.21875 7.109375 -11.9375 7.828125 -11.375 C 8.554688 -10.8125 8.960938 -10.0625 9.046875 -9.125 L 7.328125 -9.125 C 7.265625 -9.582031 7.019531 -9.988281 6.59375 -10.34375 C 6.164062 -10.695312 5.601562 -10.875 4.90625 -10.875 C 4.238281 -10.875 3.695312 -10.703125 3.28125 -10.359375 C 2.875 -10.015625 2.671875 -9.539062 2.671875 -8.9375 C 2.671875 -8.5 2.789062 -8.140625 3.03125 -7.859375 C 3.28125 -7.578125 3.585938 -7.363281 3.953125 -7.21875 C 4.316406 -7.082031 4.828125 -6.921875 5.484375 -6.734375 C 6.285156 -6.515625 6.925781 -6.296875 7.40625 -6.078125 C 7.894531 -5.867188 8.3125 -5.539062 8.65625 -5.09375 C 9 -4.65625 9.171875 -4.054688 9.171875 -3.296875 C 9.171875 -2.703125 9.015625 -2.144531 8.703125 -1.625 C 8.390625 -1.101562 7.925781 -0.679688 7.3125 -0.359375 C 6.707031 -0.0351562 5.988281 0.125 5.15625 0.125 Z M 5.15625 0.125 "/></g></g></g><g fill="#fefefe" fill-opacity="1"><g transform="translate(283.293722, 216.376774)"><g><path d="M 2.140625 -11.03125 C 1.847656 -11.03125 1.597656 -11.132812 1.390625 -11.34375 C 1.179688 -11.550781 1.078125 -11.800781 1.078125 -12.09375 C 1.078125 -12.394531 1.179688 -12.648438 1.390625 -12.859375 C 1.597656 -13.066406 1.847656 -13.171875 2.140625 -13.171875 C 2.429688 -13.171875 2.675781 -13.066406 2.875 -12.859375 C 3.082031 -12.648438 3.1875 -12.394531 3.1875 -12.09375 C 3.1875 -11.800781 3.082031 -11.550781 2.875 -11.34375 C 2.675781 -11.132812 2.429688 -11.03125 2.140625 -11.03125 Z M 2.90625 -9.484375 L 2.90625 0 L 1.328125 0 L 1.328125 -9.484375 Z M 2.90625 -9.484375 "/></g></g></g><g fill="#fefefe" fill-opacity="1"><g transform="translate(289.975298, 216.376774)"><g><path d="M 12.734375 -9.65625 C 13.472656 -9.65625 14.128906 -9.503906 14.703125 -9.203125 C 15.285156 -8.898438 15.742188 -8.441406 16.078125 -7.828125 C 16.410156 -7.210938 16.578125 -6.46875 16.578125 -5.59375 L 16.578125 0 L 15.03125 0 L 15.03125 -5.359375 C 15.03125 -6.304688 14.796875 -7.03125 14.328125 -7.53125 C 13.859375 -8.039062 13.226562 -8.296875 12.4375 -8.296875 C 11.613281 -8.296875 10.957031 -8.03125 10.46875 -7.5 C 9.988281 -6.976562 9.75 -6.222656 9.75 -5.234375 L 9.75 0 L 8.1875 0 L 8.1875 -5.359375 C 8.1875 -6.304688 7.953125 -7.03125 7.484375 -7.53125 C 7.015625 -8.039062 6.382812 -8.296875 5.59375 -8.296875 C 4.769531 -8.296875 4.113281 -8.03125 3.625 -7.5 C 3.144531 -6.976562 2.90625 -6.222656 2.90625 -5.234375 L 2.90625 0 L 1.328125 0 L 1.328125 -9.484375 L 2.90625 -9.484375 L 2.90625 -8.125 C 3.21875 -8.613281 3.632812 -8.988281 4.15625 -9.25 C 4.6875 -9.519531 5.269531 -9.65625 5.90625 -9.65625 C 6.695312 -9.65625 7.398438 -9.476562 8.015625 -9.125 C 8.628906 -8.769531 9.085938 -8.242188 9.390625 -7.546875 C 9.648438 -8.210938 10.082031 -8.726562 10.6875 -9.09375 C 11.300781 -9.46875 11.984375 -9.65625 12.734375 -9.65625 Z M 12.734375 -9.65625 "/></g></g></g><g fill="#fefefe" fill-opacity="1"><g transform="translate(310.226864, 216.376774)"><g><path d="M 2.90625 -7.734375 C 3.21875 -8.273438 3.679688 -8.726562 4.296875 -9.09375 C 4.921875 -9.457031 5.640625 -9.640625 6.453125 -9.640625 C 7.296875 -9.640625 8.0625 -9.4375 8.75 -9.03125 C 9.4375 -8.632812 9.972656 -8.066406 10.359375 -7.328125 C 10.753906 -6.597656 10.953125 -5.75 10.953125 -4.78125 C 10.953125 -3.820312 10.753906 -2.96875 10.359375 -2.21875 C 9.972656 -1.46875 9.4375 -0.882812 8.75 -0.46875 C 8.0625 -0.0507812 7.296875 0.15625 6.453125 0.15625 C 5.648438 0.15625 4.9375 -0.0234375 4.3125 -0.390625 C 3.695312 -0.753906 3.226562 -1.207031 2.90625 -1.75 L 2.90625 4.5 L 1.328125 4.5 L 1.328125 -9.484375 L 2.90625 -9.484375 Z M 9.34375 -4.78125 C 9.34375 -5.5 9.195312 -6.117188 8.90625 -6.640625 C 8.625 -7.171875 8.238281 -7.578125 7.75 -7.859375 C 7.257812 -8.140625 6.71875 -8.28125 6.125 -8.28125 C 5.550781 -8.28125 5.019531 -8.132812 4.53125 -7.84375 C 4.039062 -7.5625 3.644531 -7.148438 3.34375 -6.609375 C 3.050781 -6.078125 2.90625 -5.460938 2.90625 -4.765625 C 2.90625 -4.046875 3.050781 -3.414062 3.34375 -2.875 C 3.644531 -2.34375 4.039062 -1.9375 4.53125 -1.65625 C 5.019531 -1.375 5.550781 -1.234375 6.125 -1.234375 C 6.71875 -1.234375 7.257812 -1.375 7.75 -1.65625 C 8.238281 -1.9375 8.625 -2.34375 8.90625 -2.875 C 9.195312 -3.414062 9.34375 -4.050781 9.34375 -4.78125 Z M 9.34375 -4.78125 "/></g></g></g><g fill="#fefefe" fill-opacity="1"><g transform="translate(324.351161, 216.376774)"><g><path d="M 2.90625 -12.8125 L 2.90625 0 L 1.328125 0 L 1.328125 -12.8125 Z M 2.90625 -12.8125 "/></g></g></g><g fill="#fefefe" fill-opacity="1"><g transform="translate(331.032736, 216.376774)"><g><path d="M 9.984375 -5.109375 C 9.984375 -4.804688 9.96875 -4.488281 9.9375 -4.15625 L 2.359375 -4.15625 C 2.410156 -3.21875 2.726562 -2.484375 3.3125 -1.953125 C 3.894531 -1.429688 4.601562 -1.171875 5.4375 -1.171875 C 6.113281 -1.171875 6.679688 -1.328125 7.140625 -1.640625 C 7.597656 -1.960938 7.921875 -2.390625 8.109375 -2.921875 L 9.796875 -2.921875 C 9.546875 -2.015625 9.035156 -1.273438 8.265625 -0.703125 C 7.503906 -0.128906 6.5625 0.15625 5.4375 0.15625 C 4.53125 0.15625 3.722656 -0.046875 3.015625 -0.453125 C 2.304688 -0.859375 1.75 -1.429688 1.34375 -2.171875 C 0.945312 -2.921875 0.75 -3.785156 0.75 -4.765625 C 0.75 -5.742188 0.941406 -6.601562 1.328125 -7.34375 C 1.722656 -8.082031 2.273438 -8.648438 2.984375 -9.046875 C 3.691406 -9.441406 4.507812 -9.640625 5.4375 -9.640625 C 6.332031 -9.640625 7.125 -9.441406 7.8125 -9.046875 C 8.507812 -8.660156 9.046875 -8.125 9.421875 -7.4375 C 9.796875 -6.75 9.984375 -5.972656 9.984375 -5.109375 Z M 8.359375 -5.4375 C 8.359375 -6.039062 8.222656 -6.554688 7.953125 -6.984375 C 7.691406 -7.421875 7.332031 -7.75 6.875 -7.96875 C 6.425781 -8.195312 5.921875 -8.3125 5.359375 -8.3125 C 4.566406 -8.3125 3.890625 -8.054688 3.328125 -7.546875 C 2.773438 -7.035156 2.457031 -6.332031 2.375 -5.4375 Z M 8.359375 -5.4375 "/></g></g></g></svg>